<svg width="40" height="40" viewBox="0 0 40 40" fill="none" xmlns="http://www.w3.org/2000/svg">
<circle cx="20" cy="20" r="20" fill="white"/>
<path d="M19.5652 19.5652C18.1703 19.5652 16.9761 19.0685 15.9828 18.0752C14.9894 17.0818 14.4928 15.8877 14.4928 14.4928C14.4928 13.0978 14.9894 11.9037 15.9828 10.9103C16.9761 9.91697 18.1703 9.42029 19.5652 9.42029C20.9601 9.42029 22.1543 9.91697 23.1476 10.9103C24.141 11.9037 24.6377 13.0978 24.6377 14.4928C24.6377 15.8877 24.141 17.0818 23.1476 18.0752C22.1543 19.0685 20.9601 19.5652 19.5652 19.5652ZM9.42029 29.7101V26.1594C9.42029 25.4408 9.60522 24.7803 9.97509 24.178C10.345 23.5756 10.8364 23.1159 11.4493 22.7989C12.7597 22.1437 14.0912 21.6523 15.4438 21.3247C16.7965 20.9971 18.1703 20.8333 19.5652 20.8333C20.9601 20.8333 22.3339 20.9971 23.6866 21.3247C25.0392 21.6523 26.3708 22.1437 27.6812 22.7989C28.2941 23.1159 28.7855 23.5756 29.1553 24.178C29.5252 24.7803 29.7101 25.4408 29.7101 26.1594V29.7101H9.42029ZM11.9565 27.1739H27.1739V26.1594C27.1739 25.9269 27.1158 25.7156 26.9995 25.5254C26.8833 25.3351 26.7301 25.1872 26.5399 25.0815C25.3985 24.5109 24.2467 24.0829 23.0842 23.7976C21.9218 23.5122 20.7488 23.3696 19.5652 23.3696C18.3816 23.3696 17.2086 23.5122 16.0462 23.7976C14.8838 24.0829 13.7319 24.5109 12.5906 25.0815C12.4004 25.1872 12.2471 25.3351 12.1309 25.5254C12.0146 25.7156 11.9565 25.9269 11.9565 26.1594V27.1739ZM19.5652 17.029C20.2627 17.029 20.8598 16.7806 21.3564 16.284C21.8531 15.7873 22.1014 15.1902 22.1014 14.4928C22.1014 13.7953 21.8531 13.1982 21.3564 12.7015C20.8598 12.2049 20.2627 11.9565 19.5652 11.9565C18.8678 11.9565 18.2707 12.2049 17.774 12.7015C17.2773 13.1982 17.029 13.7953 17.029 14.4928C17.029 15.1902 17.2773 15.7873 17.774 16.284C18.2707 16.7806 18.8678 17.029 19.5652 17.029Z" fill="#1D1B20"/>
</svg>
