<svg width="26" height="26" viewBox="0 0 26 26" fill="none" xmlns="http://www.w3.org/2000/svg">
<path d="M13 19.5C13.3683 19.5 13.6771 19.3754 13.9263 19.1263C14.1754 18.8771 14.3 18.5683 14.3 18.2C14.3 17.8317 14.1754 17.5229 13.9263 17.2738C13.6771 17.0246 13.3683 16.9 13 16.9C12.6317 16.9 12.3229 17.0246 12.0738 17.2738C11.8246 17.5229 11.7 17.8317 11.7 18.2C11.7 18.5683 11.8246 18.8771 12.0738 19.1263C12.3229 19.3754 12.6317 19.5 13 19.5ZM11.7 14.3H14.3V6.5H11.7V14.3ZM13 26C11.2017 26 9.51167 25.6588 7.93 24.9762C6.34833 24.2938 4.9725 23.3675 3.8025 22.1975C2.6325 21.0275 1.70625 19.6517 1.02375 18.07C0.34125 16.4883 0 14.7983 0 13C0 11.2017 0.34125 9.51167 1.02375 7.93C1.70625 6.34833 2.6325 4.9725 3.8025 3.8025C4.9725 2.6325 6.34833 1.70625 7.93 1.02375C9.51167 0.34125 11.2017 0 13 0C14.7983 0 16.4883 0.34125 18.07 1.02375C19.6517 1.70625 21.0275 2.6325 22.1975 3.8025C23.3675 4.9725 24.2938 6.34833 24.9762 7.93C25.6588 9.51167 26 11.2017 26 13C26 14.7983 25.6588 16.4883 24.9762 18.07C24.2938 19.6517 23.3675 21.0275 22.1975 22.1975C21.0275 23.3675 19.6517 24.2938 18.07 24.9762C16.4883 25.6588 14.7983 26 13 26Z" fill="#E11D48"/>
</svg>
