<svg width="23" height="23" viewBox="0 0 23 23" fill="none" xmlns="http://www.w3.org/2000/svg">
<path d="M17.1925 17.1924C15.5543 18.4411 13.5595 19.1329 11.5 19.1666C4.79165 19.1666 0.958313 11.4999 0.958313 11.4999C2.15037 9.2784 3.80373 7.3375 5.80748 5.80742M9.48748 4.06325C10.1471 3.90884 10.8225 3.83166 11.5 3.83325C18.2083 3.83325 22.0416 11.4999 22.0416 11.4999C21.4599 12.5882 20.7662 13.6128 19.9716 14.557M13.5316 13.5316C13.2684 13.814 12.951 14.0406 12.5984 14.1977C12.2457 14.3549 11.865 14.4394 11.479 14.4462C11.093 14.453 10.7095 14.382 10.3515 14.2374C9.99353 14.0928 9.66834 13.8776 9.39533 13.6046C9.12233 13.3316 8.90711 13.0064 8.76251 12.6484C8.61791 12.2904 8.5469 11.9069 8.55371 11.5209C8.56052 11.1349 8.64502 10.7542 8.80215 10.4015C8.95929 10.0489 9.18585 9.73146 9.46831 9.46825M0.958313 0.958252L22.0416 22.0416" stroke="#0071C5" stroke-width="2" stroke-linecap="round" stroke-linejoin="round"/>
</svg>
