<svg width="23" height="23" viewBox="0 0 23 23" fill="none" xmlns="http://www.w3.org/2000/svg">
<path d="M2.875 5.74996H4.79167M4.79167 5.74996H20.125M4.79167 5.74996V19.1666C4.79167 19.675 4.9936 20.1625 5.35305 20.5219C5.71249 20.8814 6.2 21.0833 6.70833 21.0833H16.2917C16.8 21.0833 17.2875 20.8814 17.647 20.5219C18.0064 20.1625 18.2083 19.675 18.2083 19.1666V5.74996M7.66667 5.74996V3.83329C7.66667 3.32496 7.8686 2.83745 8.22805 2.478C8.58749 2.11856 9.075 1.91663 9.58333 1.91663H13.4167C13.925 1.91663 14.4125 2.11856 14.772 2.478C15.1314 2.83745 15.3333 3.32496 15.3333 3.83329V5.74996M9.58333 10.5416V16.2916M13.4167 10.5416V16.2916" stroke="#E11D48" stroke-width="2" stroke-linecap="round" stroke-linejoin="round"/>
</svg>
